<?xml version="1.0" encoding="UTF-8"?>
<svg width="47px" height="45px" viewBox="0 0 47 45" version="1.1" xmlns="http://www.w3.org/2000/svg" xmlns:xlink="http://www.w3.org/1999/xlink">
    <title>Lifestyle_logo</title>
    <g id="Page-1" stroke="none" stroke-width="1" fill="none" fill-rule="evenodd">
        <g id="Lifestyle_logo" fill-rule="nonzero">
            <path d="M20.2686869,0.000406183574 C17.1817407,1.6452219 14.9779563,5.50184867 14.5142322,10.0707124 L22.7265868,21.437252 L22.7265868,16.9316607 L24.2401543,16.9316607 L24.2401543,21.4392322 L32.4580629,10.0645689 C31.9886101,5.4965345 29.7797598,1.64509093 26.6904806,0.00797135264 L23.4840522,3.23230734 L20.2687374,0 L20.2686869,0.000406183574 Z M9.60954041,10.5860578 C6.49863955,10.6321056 3.76861604,11.6288673 1.99146443,13.3675014 L4.04993036,17.4301495 L0,19.5060522 C0.6009006,22.9669067 3.56720486,26.2669263 7.7453132,28.122729 L21.033019,23.7806266 L16.7712286,22.387417 L17.2392899,20.9397279 L21.5020397,22.3329376 L13.2841311,10.9582743 C12.0546087,10.6933706 10.8159359,10.5677778 9.609601,10.5857024 L9.60954041,10.5860578 Z M36.9362576,10.5880888 C35.8608125,10.6030882 34.7646531,10.7303767 33.6766117,10.9666062 L25.4642571,22.3331457 L29.7270574,20.9399361 L30.194129,22.3876251 L25.9323386,23.7808348 L39.228123,28.1248666 C40.4034683,27.6019367 41.5015039,26.9556112 42.4838306,26.2084925 C44.9385986,24.3382087 46.5394925,21.9379224 46.9565217,19.5024016 L42.9154273,17.4324394 L44.9798007,13.3579104 C43.1156037,11.5422504 40.214021,10.5431952 36.9360859,10.5883477 L36.9362576,10.5880888 Z M25.462187,25.2254216 L28.098118,28.873864 L26.8742677,29.7686356 L24.2393464,26.1221734 L24.2393464,40.1806946 C27.2890758,43.5984035 31.3269034,45.4085211 34.7828686,44.9072497 L35.4923676,40.4036386 L39.9827811,41.1180647 C41.518963,37.9627318 41.0476093,33.5398204 38.7520135,29.5692503 L25.462288,25.2252185 L25.462187,25.2254216 Z M21.5009188,25.228468 L8.20311473,29.5735152 C5.91444264,33.5459101 5.45105019,37.9657831 6.9930484,41.1152214 L11.471647,40.4027755 L12.1840744,44.9182675 C14.7518099,45.289338 17.6828642,44.3868141 20.3095846,42.4162782 C21.1715651,41.7647333 21.9841159,41.0099668 22.725779,40.1719109 L22.7267888,26.1210056 L20.0918676,29.7684833 L18.8670579,28.8737117 L21.5009693,25.2282141 L21.5009188,25.228468 Z" id="shapeOut" fill="#2D2D2D"></path>
            <path d="M23.5421178,14.675368 C22.876911,14.6453997 22.2741423,15.0809939 22.0683546,15.7403912 C21.8153547,16.5510023 22.2412184,17.4217215 23.019613,17.6853302 C23.7980556,17.9487852 24.634221,17.505323 24.8873686,16.6947619 C25.1403686,15.8841508 24.7145049,15.0134315 23.9361102,14.7498228 C23.8086037,14.7065701 23.6760503,14.6815354 23.5420782,14.675404 L23.5421178,14.675368 Z M29.8010992,19.4734302 C29.6524621,19.4755851 29.5049818,19.5010105 29.3636084,19.548853 C28.5852137,19.8124617 28.15935,20.6831809 28.41235,21.4937921 C28.6654976,22.3043532 29.501663,22.7478154 30.2801056,22.4843604 C31.0585003,22.2207517 31.4843639,21.3500325 31.231364,20.5394213 C31.0304453,19.8960932 30.4506495,19.4639716 29.8010646,19.4734199 L29.8010992,19.4734302 Z M17.0715039,19.4744358 C16.6192911,19.4944693 16.2006509,19.7285586 15.9348198,20.1100307 C15.4543015,20.7996493 15.6012733,21.7642778 16.2631765,22.2651527 C16.5811641,22.50588 16.977964,22.6052013 17.3662781,22.5412655 C17.7545921,22.4773297 18.102609,22.2553744 18.3337631,21.924231 C18.5648374,21.5929797 18.6600608,21.1796993 18.5984801,20.7753296 C18.5368993,20.3709598 18.3235601,20.0086339 18.0054064,19.7680792 C17.734842,19.5632687 17.4057064,19.4597762 17.0715039,19.4744255 L17.0715039,19.4744358 Z M19.5158591,27.2391569 C19.2171331,27.2480492 18.9279645,27.3507618 18.6862894,27.5338198 C18.3681358,27.7743745 18.1547966,28.1367005 18.0932158,28.5410702 C18.031635,28.94544 18.1268584,29.3587204 18.3579327,29.6899717 C18.5890868,30.021115 18.9371037,30.2430703 19.3254178,30.3070061 C19.7137318,30.370942 20.1105317,30.2716206 20.4285193,30.0308934 C20.746673,29.7903387 20.9600122,29.4280127 21.021593,29.023643 C21.0831737,28.6192732 20.9879503,28.2059928 20.756876,27.8747415 C20.4692863,27.4625864 20.0049131,27.2247546 19.5158591,27.2391466 L19.5158591,27.2391569 Z M27.3779072,27.2391569 C27.2292717,27.2413124 27.0817931,27.2667378 26.9404213,27.3145797 C26.1620267,27.5781884 25.736163,28.4489077 25.9891629,29.2595188 C26.2423106,30.0700799 27.0784759,30.5135421 27.8569186,30.2500871 C28.6353132,29.9864784 29.0611769,29.1157592 28.8081769,28.3051481 C28.6072583,27.6618199 28.0274624,27.2296983 27.3778775,27.2391466 L27.3779072,27.2391569 Z" id="ShapeIn" fill="#B5745F"></path>
        </g>
    </g>
</svg>