<?xml version="1.0" encoding="UTF-8"?>
<svg width="1920px" height="1278px" viewBox="0 0 1920 1278" version="1.1" xmlns="http://www.w3.org/2000/svg" xmlns:xlink="http://www.w3.org/1999/xlink" preserveAspectRatio="xMaxYMax meet">
    <title>FOOTERDESIGN</title>
    <defs>
        <radialGradient cx="84.8548706%" cy="23.0109964%" fx="84.8548706%" fy="23.0109964%" r="101.513568%" gradientTransform="translate(0.848549,0.230110),scale(0.665460,1.000000),rotate(151.390841),translate(-0.848549,-0.230110)" id="radialGradient-1">
            <stop stop-color="#B8B487" offset="0%"></stop>
            <stop stop-color="#76786A" offset="100%"></stop>
        </radialGradient>
        <path d="M0.000459234138,-2.27373675e-13 C46.0548269,48.3428762 116.721647,75.9509841 212.000918,82.8243235 C354.919826,93.1343327 297.897208,188.713441 417.969668,180.311931 C538.042129,171.91042 639.005344,82.6498091 816.67046,132.208603 C994.335576,181.767397 980.254876,-17.251242 1153.14344,52.4060061 C1326.03199,122.063254 1478.92282,64.1287129 1645.12398,132.208603 C1755.92475,177.595197 1847.5504,153.957407 1920.00092,61.2952357 L1920.00092,1277.68302 L0.000459234138,1277.68302 L0.000459234138,-2.27373675e-13 Z" id="path-2"></path>
        <filter x="-14.3%" y="-14.3%" width="128.6%" height="128.6%" filterUnits="objectBoundingBox" id="filter-4">
            <feGaussianBlur stdDeviation="1" in="SourceGraphic"></feGaussianBlur>
        </filter>
        <filter x="-18.4%" y="-18.4%" width="136.9%" height="136.9%" filterUnits="objectBoundingBox" id="filter-5">
            <feGaussianBlur stdDeviation="1" in="SourceGraphic"></feGaussianBlur>
        </filter>
        <filter x="-14.3%" y="-14.3%" width="128.6%" height="128.6%" filterUnits="objectBoundingBox" id="filter-6">
            <feGaussianBlur stdDeviation="1" in="SourceGraphic"></feGaussianBlur>
        </filter>
        <filter x="-18.4%" y="-18.4%" width="136.9%" height="136.9%" filterUnits="objectBoundingBox" id="filter-7">
            <feGaussianBlur stdDeviation="1" in="SourceGraphic"></feGaussianBlur>
        </filter>
        <filter x="-14.3%" y="-14.3%" width="128.6%" height="128.6%" filterUnits="objectBoundingBox" id="filter-8">
            <feGaussianBlur stdDeviation="1" in="SourceGraphic"></feGaussianBlur>
        </filter>
        <filter x="-18.4%" y="-18.4%" width="136.9%" height="136.9%" filterUnits="objectBoundingBox" id="filter-9">
            <feGaussianBlur stdDeviation="1" in="SourceGraphic"></feGaussianBlur>
        </filter>
        <filter x="-14.3%" y="-14.3%" width="128.6%" height="128.6%" filterUnits="objectBoundingBox" id="filter-10">
            <feGaussianBlur stdDeviation="1" in="SourceGraphic"></feGaussianBlur>
        </filter>
        <filter x="-18.4%" y="-18.4%" width="136.9%" height="136.9%" filterUnits="objectBoundingBox" id="filter-11">
            <feGaussianBlur stdDeviation="1" in="SourceGraphic"></feGaussianBlur>
        </filter>
        <filter x="-14.3%" y="-14.3%" width="128.6%" height="128.6%" filterUnits="objectBoundingBox" id="filter-12">
            <feGaussianBlur stdDeviation="1" in="SourceGraphic"></feGaussianBlur>
        </filter>
        <filter x="-18.4%" y="-18.4%" width="136.9%" height="136.9%" filterUnits="objectBoundingBox" id="filter-13">
            <feGaussianBlur stdDeviation="1" in="SourceGraphic"></feGaussianBlur>
        </filter>
        <filter x="-14.3%" y="-14.3%" width="128.6%" height="128.6%" filterUnits="objectBoundingBox" id="filter-14">
            <feGaussianBlur stdDeviation="1" in="SourceGraphic"></feGaussianBlur>
        </filter>
        <filter x="-18.4%" y="-18.4%" width="136.9%" height="136.9%" filterUnits="objectBoundingBox" id="filter-15">
            <feGaussianBlur stdDeviation="1" in="SourceGraphic"></feGaussianBlur>
        </filter>
        <filter x="-14.3%" y="-14.3%" width="128.6%" height="128.6%" filterUnits="objectBoundingBox" id="filter-16">
            <feGaussianBlur stdDeviation="1" in="SourceGraphic"></feGaussianBlur>
        </filter>
        <filter x="-18.4%" y="-18.4%" width="136.9%" height="136.9%" filterUnits="objectBoundingBox" id="filter-17">
            <feGaussianBlur stdDeviation="1" in="SourceGraphic"></feGaussianBlur>
        </filter>
        <filter x="-14.3%" y="-14.3%" width="128.6%" height="128.6%" filterUnits="objectBoundingBox" id="filter-18">
            <feGaussianBlur stdDeviation="1" in="SourceGraphic"></feGaussianBlur>
        </filter>
        <filter x="-18.4%" y="-18.4%" width="136.9%" height="136.9%" filterUnits="objectBoundingBox" id="filter-19">
            <feGaussianBlur stdDeviation="1" in="SourceGraphic"></feGaussianBlur>
        </filter>
        <filter x="-18.4%" y="-18.4%" width="136.9%" height="136.9%" filterUnits="objectBoundingBox" id="filter-20">
            <feGaussianBlur stdDeviation="1" in="SourceGraphic"></feGaussianBlur>
        </filter>
        <filter x="-14.3%" y="-14.3%" width="128.6%" height="128.6%" filterUnits="objectBoundingBox" id="filter-21">
            <feGaussianBlur stdDeviation="1" in="SourceGraphic"></feGaussianBlur>
        </filter>
        <filter x="-18.4%" y="-18.4%" width="136.9%" height="136.9%" filterUnits="objectBoundingBox" id="filter-22">
            <feGaussianBlur stdDeviation="1" in="SourceGraphic"></feGaussianBlur>
        </filter>
        <filter x="-14.3%" y="-14.3%" width="128.6%" height="128.6%" filterUnits="objectBoundingBox" id="filter-23">
            <feGaussianBlur stdDeviation="1" in="SourceGraphic"></feGaussianBlur>
        </filter>
        <filter x="-18.4%" y="-18.4%" width="136.9%" height="136.9%" filterUnits="objectBoundingBox" id="filter-24">
            <feGaussianBlur stdDeviation="1" in="SourceGraphic"></feGaussianBlur>
        </filter>
        <linearGradient x1="8.43704578%" y1="22.0952943%" x2="91.0565044%" y2="81.6020167%" id="linearGradient-25">
            <stop stop-color="#FFFFFF" offset="0%"></stop>
            <stop stop-color="#F4F4F4" offset="100%"></stop>
        </linearGradient>
        <circle id="path-26" cx="83.5" cy="83.5" r="83.5"></circle>
        <filter x="-75.4%" y="-75.4%" width="250.9%" height="250.9%" filterUnits="objectBoundingBox" id="filter-27">
            <feOffset dx="0" dy="0" in="SourceAlpha" result="shadowOffsetOuter1"></feOffset>
            <feGaussianBlur stdDeviation="42" in="shadowOffsetOuter1" result="shadowBlurOuter1"></feGaussianBlur>
            <feColorMatrix values="0 0 0 0 0.916043931   0 0 0 0 0.915802053   0 0 0 0 0.912657641  0 0 0 1 0" type="matrix" in="shadowBlurOuter1"></feColorMatrix>
        </filter>
        <linearGradient x1="13.6688931%" y1="34.6559674%" x2="86.0668697%" y2="68.5096052%" id="linearGradient-28">
            <stop stop-color="#F1F1F1" offset="0%"></stop>
            <stop stop-color="#EBE8E8" offset="100%"></stop>
        </linearGradient>
    </defs>
    <g id="Page-1" stroke="none" stroke-width="1" fill="none" fill-rule="evenodd">
        <g id="FOOTERDESIGN" transform="translate(-0.000000, -0.000000)">
            <g id="BG" transform="translate(-0.000000, -0.000000)">
                <path d="M-1.13686838e-13,-2.27373675e-13 C62.7210344,33.990151 141.721187,54.4218962 237.000459,61.2952357 C379.919367,71.6052448 321.353492,161.859504 441.425952,153.457993 C561.498413,145.056483 651.267157,52.5047751 828.932272,102.063569 C1006.59739,151.622363 1088.1119,-28.1266252 1261.00046,41.5306229 C1433.88902,111.187871 1506.31212,33.9836789 1672.51328,102.063569 C1783.31405,147.450163 1865.80978,127.272514 1920.00046,41.5306229 L1920.00046,1277.68302 L-1.13686838e-13,1277.68302 L-1.13686838e-13,-2.27373675e-13 Z" id="bg-shadow" fill="#F1EAE7"></path>
                <mask id="mask-3" fill="white">
                    <use xlink:href="#path-2"></use>
                </mask>
                <use id="all-bg" fill="url(#radialGradient-1)" xlink:href="#path-2"></use>
                <image mask="url(#mask-3)" href="grass_01.png" width="100%" x="3.32988748e-10" y="899" preserveAspectRatio="xMinYMax meet"></image>
            </g>
            <g id="right_Graphics" transform="translate(990.533793, 205.683025)">
                <g id="balls" transform="translate(-0.000000, 44.000000)">
                    <circle id="Oval" fill="#B1AB76" filter="url(#filter-4)" cx="255.966667" cy="194.5" r="10.5"></circle>
                    <circle id="Oval-Copy-20" fill="#C4BE88" filter="url(#filter-5)" cx="89.5974359" cy="223.330769" r="8.13076923"></circle>
                    <circle id="Oval-Copy-4" fill="#B1AB76" filter="url(#filter-6)" cx="34.9666667" cy="375.5" r="10.5"></circle>
                    <circle id="Oval-Copy-21" fill="#C4BE88" filter="url(#filter-7)" cx="722.551282" cy="695.694872" r="8.13076923"></circle>
                    <circle id="Oval-Copy-16" fill="#B1AB76" filter="url(#filter-8)" cx="178.966667" cy="10.5" r="10.5"></circle>
                    <circle id="Oval-Copy-22" fill="#C4BE88" filter="url(#filter-9)" cx="596.802564" cy="238.04359" r="8.13076923"></circle>
                    <circle id="Oval-Copy-13" fill="#B1AB76" filter="url(#filter-10)" cx="718.966667" cy="551.5" r="10.5"></circle>
                    <circle id="Oval-Copy-23" fill="#C4BE88" filter="url(#filter-11)" cx="8.13076923" cy="696.048718" r="8.13076923"></circle>
                    <circle id="Oval-Copy-17" fill="#B1AB76" filter="url(#filter-12)" cx="863.966667" cy="484.5" r="10.5"></circle>
                    <circle id="Oval-Copy-24" fill="#C4BE88" filter="url(#filter-13)" cx="735.382051" cy="75.3974359" r="8.13076923"></circle>
                    <circle id="Oval-Copy-11" fill="#C6C089" filter="url(#filter-14)" cx="873.966667" cy="10.5" r="10.5"></circle>
                    <circle id="Oval-Copy-25" fill="#C4BE88" filter="url(#filter-15)" cx="529.433333" cy="197.776923" r="8.13076923"></circle>
                    <circle id="Oval-Copy-14" fill="#B1AB76" filter="url(#filter-16)" cx="94.9666667" cy="280.5" r="10.5"></circle>
                    <circle id="Oval-Copy-26" fill="#C4BE88" filter="url(#filter-17)" cx="752.012821" cy="151.130769" r="8.13076923"></circle>
                    <circle id="Oval-Copy-12" fill="#B1AB76" filter="url(#filter-18)" cx="476.966667" cy="809.5" r="10.5"></circle>
                    <circle id="Oval-Copy-27" fill="#C4BE88" filter="url(#filter-19)" cx="365.269231" cy="327.869231" r="8.13076923"></circle>
                    <circle id="Oval-Copy-18" fill="#D1CB97" cx="430.966667" cy="414.5" r="7.5"></circle>
                    <circle id="Oval-Copy-28" fill="#C4BE88" filter="url(#filter-20)" cx="258.520513" cy="527.217949" r="8.13076923"></circle>
                    <circle id="Oval-Copy-15" fill="#B1AB76" filter="url(#filter-21)" cx="259.966667" cy="404.5" r="10.5"></circle>
                    <circle id="Oval-Copy-29" fill="#D5CF99" filter="url(#filter-22)" cx="673.848718" cy="65.2230769" r="8.13076923"></circle>
                    <circle id="Oval-Copy-19" fill="#B1AB76" filter="url(#filter-23)" cx="896.966667" cy="352.5" r="10.5"></circle>
                    <circle id="Oval-Copy-30" fill="#C4BE88" filter="url(#filter-24)" cx="479.1" cy="294.571795" r="8.13076923"></circle>
                </g>
                <g id="lady-2747261" transform="translate(553.966667, 354.000000) scale(-1, 1) translate(-553.966667, -354.000000) translate(271.466667, 62.000000)" fill="#503C3E" fill-rule="nonzero">
                    <path d="M560.156873,554.35115 C543.91146,558.576023 526.286849,550.510621 490.325961,537.611528 C455.548024,525.137294 430.701325,512.803949 406.253684,495.879273 C388.188431,483.373284 394.905313,490.12213 381.549245,477.756666 C375.842778,472.473294 367.996567,466.469777 364.113586,464.415193 C360.230241,462.360609 355.890203,459.50485 354.469057,458.068576 C351.936092,455.508832 351.965638,455.380352 355.955132,451.557709 C360.5651,447.141211 379.186992,433.835507 380.758423,433.835507 C381.967272,433.835507 399.742533,423.204157 399.742533,411.335823 C399.742533,402.492972 397.617745,399.045549 390.314678,396.04014 C375.675713,390.015453 342.591039,382.092037 300.449117,380.751028 C286.077894,380.293683 274.319156,379.640333 274.319156,379.299423 C274.319156,376.16517 324.446631,231.351124 327.851033,219.728435 C329.066813,215.578022 330.579151,213.528913 333.324413,212.311638 C338.070805,210.207414 343.254557,202.812153 344.593993,196.233761 C345.744844,190.581739 344.921193,190.739784 339.198675,186.792311 C356.207188,137.191754 373.462651,81.5599409 393.870824,0 L387.926526,0 C367.622677,70.4902262 361.795106,102.604736 344.549856,150.593088 C333.139109,182.345883 337.972682,184.368347 326.128223,185.805351 C316.381558,186.987585 318.346941,189.731289 308.675784,194.199617 C301.940663,197.311241 297.266496,200.129769 293.8289,202.120843 C293.8289,193.341502 299.375598,178.385635 299.393472,172.347807 C299.402591,169.150044 301.916589,166.54869 308.41242,163.015492 C309.804748,162.258117 311.542514,158.379629 312.695189,153.457242 C318.758767,127.561234 307.086844,143.811756 311.236107,125.414305 C313.239426,116.532764 316.199538,106.168229 317.154871,102.715331 C317.119488,102.708031 317.084835,102.698906 317.049453,102.691241 L345.166318,0 L338.938594,0 C291.105524,174.704976 313.222647,118.852338 281.82686,148.543614 C249.80841,178.823634 231.36489,181.345418 210.346092,200.323584 C188.698793,219.869325 192.388811,212.202868 163.117811,229.591825 C148.781971,238.108366 135.484267,243.940698 130.400462,243.942158 C125.053293,243.943618 114.999492,235.277792 112.894402,228.853065 C109.329501,217.970961 114.702568,205.355837 103.387756,207.333771 C97.6823826,208.33095 92.1451682,203.160728 87.7066422,203.160728 C82.2846953,203.160728 82.6735405,195.663631 74.0226462,201.886148 C68.4628161,205.885816 61.4347852,203.412578 54.7514623,205.736531 C52.102135,206.657791 49.6734938,206.596471 46.4387101,205.526657 C42.1012255,204.092207 41.488776,204.291497 34.4129602,209.4369 C23.4928293,217.377471 24.6739558,215.291132 23.4122151,251.953174 C33.5717997,269.906786 34.9043059,270.6481 30.9359689,279.718346 C25.7861407,291.488495 2.40581847,289.460191 6.19614748,303.27069 C8.05574688,310.046182 -3.72670116,312.032146 1.22505675,320.493937 C2.93181735,323.410285 6.02507017,323.840985 4.83117672,320.996176 C4.25958154,319.633997 4.74363183,319.146722 6.41318586,319.402952 C11.0928251,320.122732 5.83794297,311.489026 10.0503113,311.489026 C11.2142936,311.489026 13.0406989,310.348036 14.1083818,308.953737 C16.0157661,306.463708 16.0832486,306.474658 17.8998051,309.578617 C19.5073482,312.325605 19.4219919,313.069475 17.2468661,315.267504 C15.8705875,316.658153 13.6115645,318.125088 12.2272609,318.526952 C8.4963895,319.609907 7.84089712,327.433313 3.85176825,329.386062 C-2.24646296,332.370301 3.04562571,335.549449 10.0466636,330.513182 L13.7184423,327.872043 C13.7184423,334.615415 13.2621145,337.939468 16.4140954,339.481957 C20.1799848,341.325207 22.5145152,341.125917 21.6376072,339.035928 C19.7495557,334.53694 29.0657912,329.357592 39.080562,329.338247 C43.6150226,329.329852 49.9518136,322.474791 49.9518136,317.578318 C49.9518136,313.208175 53.5054066,310.432351 54.5267637,314.004605 C56.5030896,320.916606 65.3589849,315.720834 61.4490112,314.409754 C56.1627589,312.63695 64.7023982,304.754414 76.2999077,300.701821 C90.0196512,295.907548 91.0340776,294.528944 91.2007777,280.449806 C91.3452268,268.253337 92.3979541,263.060119 94.7262834,263.060119 C95.5747393,263.060119 95.7527473,265.247198 95.1851645,268.707396 C90.9997892,294.230739 145.682152,339.471372 162.339027,357.852764 C184.57397,380.275433 176.795971,414.778136 200.69062,437.70341 C213.416729,449.913385 198.562549,447.765726 218.576406,452.624238 C242.786216,458.501465 248.000608,459.16394 253.7731,457.094756 C261.062671,454.481722 257.178596,455.373782 278.411515,465.697072 C284.899321,468.851401 290.402612,472.025074 290.641171,472.749964 C291.159875,474.325668 280.347351,493.843304 259.580609,514.125979 C240.651944,514.125979 239.872795,513.667904 237.23514,517.349657 C232.4147,524.077334 240.221515,531.97958 236.056932,558.876052 C234.554078,568.581763 237.85525,577.911888 244.093918,581.586707 C251.444405,585.922174 252.793691,584.8217 252.227932,574.95174 C251.888696,569.028523 252.237781,566.373149 253.355437,566.373149 C254.245842,566.373149 254.59821,565.816524 254.138235,565.136164 C252.172487,562.227116 262.954005,550.131387 281.288094,522.301975 C295.433889,500.830495 319.633121,482.265874 320.705546,482.265874 C323.253467,482.275364 356.497545,495.031013 369.164561,508.608276 C403.756831,545.686419 490.186619,536.649753 490.319031,570.260397 C490.346753,577.347964 505.303433,575.366745 509.397981,573.765125 C511.712084,572.860291 520.466208,572.197816 530.74106,572.149271 C547.292881,572.071891 548.492611,571.887931 554.816635,568.458393 C566.902207,561.903726 567.631748,552.407161 560.156873,554.35115 Z M28.449694,307.170713 C25.3834342,308.246002 23.4738613,305.527119 23.4738613,308.152927 C23.4738613,310.180136 19.7630522,314.12031 21.1922226,307.585353 C22.5134209,301.543511 24.0950652,300.587211 27.5468873,303.744095 C29.9718808,305.962199 30.1345684,306.579413 28.449694,307.170713 Z M28.1866946,300.018906 C25.4625894,300.018906 27.1040561,297.470113 29.9091403,297.470113 C32.6328807,297.470113 30.9925084,300.018906 28.1866946,300.018906 Z M221.087485,226.100967 C238.661028,215.730592 256.27433,201.306894 268.554325,187.23031 C272.770706,182.396983 287.845571,164.042601 292.596341,168.387194 C293.549486,169.258814 288.513101,196.396186 286.116195,203.302348 C285.174722,206.015026 275.640719,210.685564 257.85561,217.146426 C238.599746,224.141648 228.103478,233.291463 215.935468,236.779402 L215.935468,236.779402 C200.484889,241.208675 194.159771,241.991234 221.087485,226.100967 Z M245.963366,363.193806 C243.153175,365.502065 221.900923,335.416589 215.013329,323.596435 C208.904519,313.112545 202.005982,304.631774 197.800179,299.222477 C201.995768,284.530139 203.453755,282.1591 196.028854,276.445393 C193.674261,274.633534 191.983186,272.945774 192.27099,272.694654 C192.27099,272.694654 242.714721,255.574703 268.236975,241.288974 C285.072952,231.865044 275.499918,235.277427 254.821085,329.331312 C254.125468,332.485641 252.005058,341.282867 250.109346,348.881433 C249.576416,351.017777 247.742351,361.725047 245.963366,363.193806 Z M257.342743,376.84626 C252.639393,374.178111 250.738575,370.392333 252.041899,366.2901 C252.857161,363.724516 282.884329,240.81338 284.312405,235.513217 C285.782065,230.0572 288.650255,227.594911 306.264287,216.665356 C312.442767,212.831763 314.603302,212.129503 318.10984,212.815338 C320.468445,213.276698 322.663998,213.877853 322.988644,214.151602 C324.561534,215.476187 287.147401,316.850508 282.904756,330.851172 C267.12406,382.925697 267.043446,382.349727 257.342743,376.84626 Z M327.5304,430.649789 L327.5304,430.650154 C321.587196,435.222872 321.990997,434.549447 313.508627,427.718475 C326.403259,425.599651 323.380772,427.027166 329.821887,427.36625 C330.838867,427.419905 329.807661,428.897425 327.5304,430.649789 Z" id="Shape"></path>
                </g>
                <g id="moon" transform="translate(392.466667, 0.000000)" fill-rule="nonzero">
                    <g id="Oval">
                        <use fill="black" fill-opacity="1" filter="url(#filter-27)" xlink:href="#path-26"></use>
                        <use fill="url(#linearGradient-25)" xlink:href="#path-26"></use>
                    </g>
                    <circle id="Oval" fill="#EDEBEB" cx="101.5" cy="141.5" r="9.5"></circle>
                    <circle id="Oval-Copy-8" fill="#EDEBEB" cx="134" cy="139" r="6"></circle>
                    <circle id="Oval-Copy-7" fill="#EDEBEB" cx="147.5" cy="51.5" r="6.5"></circle>
                    <path d="M79.5610687,16 C87.3246746,16 93.6183206,22.3210324 93.6183206,30.1184211 C93.6183206,32.6313758 92.9646284,34.9909882 91.8187117,37.035088 C94.3223847,36.0277167 97.0566957,35.4736842 99.9198473,35.4736842 C111.227328,35.4736842 120.525274,44.1149681 121.62416,55.1810796 C126.15491,56.7630551 130.006896,59.8028595 132.622351,63.7416788 C133.846669,61.9581412 135.894317,60.7894737 138.21374,60.7894737 C141.961688,60.7894737 145,63.8410066 145,67.6052632 C145,71.3695197 141.961688,74.4210526 138.21374,74.4210526 C137.513972,74.4210526 136.838942,74.3146777 136.203805,74.11715 C136.251262,74.6988539 136.274809,75.2874545 136.274809,75.8815789 C136.274809,87.9809751 126.508807,97.7894737 114.461832,97.7894737 C103.153716,97.7894737 93.855361,89.1472188 92.757334,78.080213 C90.4276503,77.2679786 88.2777085,76.0694817 86.3830382,74.5615339 C84.985595,79.9883833 80.454191,84.1485764 74.843742,84.9797378 C74.9383495,85.5753207 75.0143694,86.1789508 75.0714478,86.7881145 C80.9881506,90.7062561 84.8931298,97.4411679 84.8931298,105.092105 C84.8931298,117.191501 75.1271273,127 63.0801527,127 C55.9362967,127 49.5945424,123.550851 45.6157269,118.220183 C30.2764033,117.69975 18,105.046346 18,89.5131579 C18,73.6495051 30.8043144,60.7894737 46.5992366,60.7894737 C51.5971723,60.7894737 56.2956708,62.0770956 60.3838092,64.3400638 C60.9280536,63.3225526 61.5935079,62.3792127 62.3604921,61.5300772 C60.5133265,60.3577257 58.9574239,58.7635039 57.8260296,56.8827749 L57.5772823,56.8912859 L57.5772823,56.8912859 L57.2633588,56.8947368 C49.4997529,56.8947368 43.2061069,50.5737044 43.2061069,42.7763158 C43.2061069,34.9789272 49.4997529,28.6578947 57.2633588,28.6578947 C60.3663116,28.6578947 63.2344479,29.6676391 65.5597934,31.3778135 C65.5224755,30.963163 65.5038168,30.5429805 65.5038168,30.1184211 C65.5038168,22.3210324 71.7974628,16 79.5610687,16 Z" id="Oval-3" fill="url(#linearGradient-28)"></path>
                </g>
            </g>
        </g>
    </g>
</svg>
