<?xml version="1.0" encoding="UTF-8"?>
<svg width="100%" height="100%" viewBox="0 0 1024 1024" version="1.1" xmlns="http://www.w3.org/2000/svg" xmlns:xlink="http://www.w3.org/1999/xlink" preserveAspectRatio="xMinYMax slice">
    <title>FOOTERMOBILE</title>
    <defs>
        <radialGradient cx="82.6199841%" cy="21.6681002%" fx="82.6199841%" fy="21.6681002%" r="54.783741%" id="radialGradient-1">
            <stop stop-color="#B8B487" offset="0%"></stop>
            <stop stop-color="#76786A" offset="100%"></stop>
        </radialGradient>
        <path d="M0.000244924756,0 C24.5625626,38.7444337 62.2515151,60.8709721 113.067102,66.379615 C189.290483,74.6425794 158.878435,151.244526 222.91705,144.51113 C286.955665,137.777733 340.802687,66.2397503 435.55737,105.958682 C530.312054,145.677614 522.802351,-13.8260206 615.009538,42.0008321 C707.216725,97.8276848 788.758458,51.3960042 877.399034,105.958682 C936.492752,142.333801 985.359741,123.389277 1024,49.1251117 L1024,1024 L0.000244924756,1024 L0.000244924756,0 Z" id="path-2"></path>
        <filter x="-17.9%" y="-17.9%" width="135.7%" height="135.7%" filterUnits="objectBoundingBox" id="filter-4">
            <feGaussianBlur stdDeviation="1" in="SourceGraphic"></feGaussianBlur>
        </filter>
        <filter x="-17.9%" y="-17.9%" width="135.7%" height="135.7%" filterUnits="objectBoundingBox" id="filter-5">
            <feGaussianBlur stdDeviation="1" in="SourceGraphic"></feGaussianBlur>
        </filter>
        <filter x="-23.1%" y="-23.1%" width="146.1%" height="146.1%" filterUnits="objectBoundingBox" id="filter-6">
            <feGaussianBlur stdDeviation="1" in="SourceGraphic"></feGaussianBlur>
        </filter>
        <filter x="-17.9%" y="-17.9%" width="135.7%" height="135.7%" filterUnits="objectBoundingBox" id="filter-7">
            <feGaussianBlur stdDeviation="1" in="SourceGraphic"></feGaussianBlur>
        </filter>
        <filter x="-17.9%" y="-17.9%" width="135.7%" height="135.7%" filterUnits="objectBoundingBox" id="filter-8">
            <feGaussianBlur stdDeviation="1" in="SourceGraphic"></feGaussianBlur>
        </filter>
        <filter x="-23.1%" y="-23.1%" width="146.1%" height="146.1%" filterUnits="objectBoundingBox" id="filter-9">
            <feGaussianBlur stdDeviation="1" in="SourceGraphic"></feGaussianBlur>
        </filter>
        <filter x="-23.1%" y="-23.1%" width="146.1%" height="146.1%" filterUnits="objectBoundingBox" id="filter-10">
            <feGaussianBlur stdDeviation="1" in="SourceGraphic"></feGaussianBlur>
        </filter>
        <filter x="-17.9%" y="-17.9%" width="135.7%" height="135.7%" filterUnits="objectBoundingBox" id="filter-11">
            <feGaussianBlur stdDeviation="1" in="SourceGraphic"></feGaussianBlur>
        </filter>
        <filter x="-17.9%" y="-17.9%" width="135.7%" height="135.7%" filterUnits="objectBoundingBox" id="filter-12">
            <feGaussianBlur stdDeviation="1" in="SourceGraphic"></feGaussianBlur>
        </filter>
        <filter x="-23.1%" y="-23.1%" width="146.1%" height="146.1%" filterUnits="objectBoundingBox" id="filter-13">
            <feGaussianBlur stdDeviation="1" in="SourceGraphic"></feGaussianBlur>
        </filter>
        <filter x="-17.9%" y="-17.9%" width="135.7%" height="135.7%" filterUnits="objectBoundingBox" id="filter-14">
            <feGaussianBlur stdDeviation="1" in="SourceGraphic"></feGaussianBlur>
        </filter>
        <filter x="-23.1%" y="-23.1%" width="146.1%" height="146.1%" filterUnits="objectBoundingBox" id="filter-15">
            <feGaussianBlur stdDeviation="1" in="SourceGraphic"></feGaussianBlur>
        </filter>
        <filter x="-23.1%" y="-23.1%" width="146.1%" height="146.1%" filterUnits="objectBoundingBox" id="filter-16">
            <feGaussianBlur stdDeviation="1" in="SourceGraphic"></feGaussianBlur>
        </filter>
        <filter x="-17.9%" y="-17.9%" width="135.7%" height="135.7%" filterUnits="objectBoundingBox" id="filter-17">
            <feGaussianBlur stdDeviation="1" in="SourceGraphic"></feGaussianBlur>
        </filter>
        <filter x="-23.1%" y="-23.1%" width="146.1%" height="146.1%" filterUnits="objectBoundingBox" id="filter-18">
            <feGaussianBlur stdDeviation="1" in="SourceGraphic"></feGaussianBlur>
        </filter>
        <filter x="-17.9%" y="-17.9%" width="135.7%" height="135.7%" filterUnits="objectBoundingBox" id="filter-19">
            <feGaussianBlur stdDeviation="1" in="SourceGraphic"></feGaussianBlur>
        </filter>
        <filter x="-23.1%" y="-23.1%" width="146.1%" height="146.1%" filterUnits="objectBoundingBox" id="filter-20">
            <feGaussianBlur stdDeviation="1" in="SourceGraphic"></feGaussianBlur>
        </filter>
        <filter x="-17.9%" y="-17.9%" width="135.7%" height="135.7%" filterUnits="objectBoundingBox" id="filter-21">
            <feGaussianBlur stdDeviation="1" in="SourceGraphic"></feGaussianBlur>
        </filter>
        <filter x="-23.1%" y="-23.1%" width="146.1%" height="146.1%" filterUnits="objectBoundingBox" id="filter-22">
            <feGaussianBlur stdDeviation="1" in="SourceGraphic"></feGaussianBlur>
        </filter>
        <filter x="-17.9%" y="-17.9%" width="135.7%" height="135.7%" filterUnits="objectBoundingBox" id="filter-23">
            <feGaussianBlur stdDeviation="1" in="SourceGraphic"></feGaussianBlur>
        </filter>
        <filter x="-17.9%" y="-17.9%" width="135.7%" height="135.7%" filterUnits="objectBoundingBox" id="filter-24">
            <feGaussianBlur stdDeviation="1" in="SourceGraphic"></feGaussianBlur>
        </filter>
        <filter x="-23.1%" y="-23.1%" width="146.1%" height="146.1%" filterUnits="objectBoundingBox" id="filter-25">
            <feGaussianBlur stdDeviation="1" in="SourceGraphic"></feGaussianBlur>
        </filter>
        <filter x="-23.1%" y="-23.1%" width="146.1%" height="146.1%" filterUnits="objectBoundingBox" id="filter-26">
            <feGaussianBlur stdDeviation="1" in="SourceGraphic"></feGaussianBlur>
        </filter>
        <filter x="-17.9%" y="-17.9%" width="135.7%" height="135.7%" filterUnits="objectBoundingBox" id="filter-27">
            <feGaussianBlur stdDeviation="1" in="SourceGraphic"></feGaussianBlur>
        </filter>
        <filter x="-23.1%" y="-23.1%" width="146.1%" height="146.1%" filterUnits="objectBoundingBox" id="filter-28">
            <feGaussianBlur stdDeviation="1" in="SourceGraphic"></feGaussianBlur>
        </filter>
        <filter x="-17.9%" y="-17.9%" width="135.7%" height="135.7%" filterUnits="objectBoundingBox" id="filter-29">
            <feGaussianBlur stdDeviation="1" in="SourceGraphic"></feGaussianBlur>
        </filter>
        <filter x="-23.1%" y="-23.1%" width="146.1%" height="146.1%" filterUnits="objectBoundingBox" id="filter-30">
            <feGaussianBlur stdDeviation="1" in="SourceGraphic"></feGaussianBlur>
        </filter>
        <linearGradient x1="8.43704578%" y1="22.0952943%" x2="91.0565044%" y2="81.6020167%" id="linearGradient-31">
            <stop stop-color="#FFFFFF" offset="0%"></stop>
            <stop stop-color="#F4F4F4" offset="100%"></stop>
        </linearGradient>
        <circle id="path-32" cx="38.5889749" cy="38.5" r="38.5"></circle>
        <filter x="-163.6%" y="-163.6%" width="427.3%" height="427.3%" filterUnits="objectBoundingBox" id="filter-33">
            <feOffset dx="0" dy="0" in="SourceAlpha" result="shadowOffsetOuter1"></feOffset>
            <feGaussianBlur stdDeviation="42" in="shadowOffsetOuter1" result="shadowBlurOuter1"></feGaussianBlur>
            <feColorMatrix values="0 0 0 0 0.916043931   0 0 0 0 0.915802053   0 0 0 0 0.912657641  0 0 0 1 0" type="matrix" in="shadowBlurOuter1"></feColorMatrix>
        </filter>
        <linearGradient x1="13.6688931%" y1="34.3971598%" x2="86.0668697%" y2="68.8218065%" id="linearGradient-34">
            <stop stop-color="#F1F1F1" offset="0%"></stop>
            <stop stop-color="#EBE8E8" offset="100%"></stop>
        </linearGradient>
    </defs>
    <g id="Page-1" stroke="none" stroke-width="1" fill="none" fill-rule="evenodd">
        <g id="FOOTERMOBILE" transform="translate(0.000000, 0.000000)">
            <g id="BG" transform="translate(0.000000, 0.000000)">
                <path d="M2.84217094e-13,0 C33.4512023,27.2414315 75.5845972,43.6164688 126.400184,49.1251117 C202.623565,57.3880761 171.388447,129.722418 235.427062,122.989022 C299.465677,116.255625 347.342317,42.0799906 442.097,81.7989226 C536.851684,121.517854 580.326069,-22.5421045 672.533257,33.2847482 C764.740444,89.1116009 803.366079,27.2362445 892.006656,81.7989226 C951.100374,118.174041 995.098073,102.00265 1023.99976,33.2847482 L1023.99976,1024 L2.84217094e-13,1024 L2.84217094e-13,0 Z" id="main-path-shadow" fill="#F1EAE7"></path>
                <mask id="mask-3" fill="white">
                    <use xlink:href="#path-2"></use>
                </mask>
                <use id="main-path" fill="url(#radialGradient-1)" xlink:href="#path-2"></use>
                <image mask="url(#mask-3)" href="grass_01.png" width="100%" x="0" y="851" preserveAspectRatio="xMidYMin meet"></image>
            </g>
            <g id="right_Graphics" transform="translate(317.574052, 173.000000)">
                <g id="balls" transform="translate(0.000000, 11.000000)">
                    <ellipse id="Oval" fill="#B1AB76" filter="url(#filter-4)" cx="185.206803" cy="155.6" rx="8.40030855" ry="8.4"></ellipse>
                    <ellipse id="Oval-Copy-35" fill="#B1AB76" filter="url(#filter-5)" cx="435.206803" cy="399.6" rx="8.40030855" ry="8.4"></ellipse>
                    <ellipse id="Oval-Copy-20" fill="#C4BE88" filter="url(#filter-6)" cx="52.1065293" cy="178.664615" rx="6.50485431" ry="6.50461538"></ellipse>
                    <ellipse id="Oval-Copy-4" fill="#B1AB76" filter="url(#filter-7)" cx="8.40030855" cy="300.4" rx="8.40030855" ry="8.4"></ellipse>
                    <ellipse id="Oval-Copy-34" fill="#B1AB76" filter="url(#filter-8)" cx="472.400309" cy="571.4" rx="8.40030855" ry="8.4"></ellipse>
                    <ellipse id="Oval-Copy-21" fill="#C4BE88" filter="url(#filter-9)" cx="558.488206" cy="556.555897" rx="6.50485431" ry="6.50461538"></ellipse>
                    <ellipse id="Oval-Copy-32" fill="#C4BE88" filter="url(#filter-10)" cx="151.488206" cy="538.555897" rx="6.50485431" ry="6.50461538"></ellipse>
                    <ellipse id="Oval-Copy-16" fill="#B1AB76" filter="url(#filter-11)" cx="123.60454" cy="8.4" rx="8.40030855" ry="8.4"></ellipse>
                    <ellipse id="Oval-Copy-36" fill="#B1AB76" filter="url(#filter-12)" cx="244.60454" cy="588.4" rx="8.40030855" ry="8.4"></ellipse>
                    <ellipse id="Oval-Copy-22" fill="#C4BE88" filter="url(#filter-13)" cx="457.885537" cy="190.434872" rx="6.50485431" ry="6.50461538"></ellipse>
                    <ellipse id="Oval-Copy-13" fill="#B1AB76" filter="url(#filter-14)" cx="555.620408" cy="441.2" rx="8.40030855" ry="8.4"></ellipse>
                    <ellipse id="Oval-Copy-23" fill="#C4BE88" filter="url(#filter-15)" cx="399.930802" cy="510.838974" rx="6.50485431" ry="6.50461538"></ellipse>
                    <ellipse id="Oval-Copy-33" fill="#C4BE88" filter="url(#filter-16)" cx="423.930802" cy="407.838974" rx="6.50485431" ry="6.50461538"></ellipse>
                    <ellipse id="Oval-Copy-17" fill="#B1AB76" filter="url(#filter-17)" cx="671.624669" cy="387.6" rx="8.40030855" ry="8.4"></ellipse>
                    <ellipse id="Oval-Copy-24" fill="#C4BE88" filter="url(#filter-18)" cx="568.753199" cy="60.3179487" rx="6.50485431" ry="6.50461538"></ellipse>
                    <ellipse id="Oval-Copy-11" fill="#C6C089" filter="url(#filter-19)" cx="679.624963" cy="8.4" rx="8.40030855" ry="8.4"></ellipse>
                    <ellipse id="Oval-Copy-25" fill="#C4BE88" filter="url(#filter-20)" cx="403.988172" cy="158.221538" rx="6.50485431" ry="6.50461538"></ellipse>
                    <ellipse id="Oval-Copy-14" fill="#B1AB76" filter="url(#filter-21)" cx="56.4020717" cy="224.4" rx="8.40030855" ry="8.4"></ellipse>
                    <ellipse id="Oval-Copy-26" fill="#C4BE88" filter="url(#filter-22)" cx="582.058303" cy="120.904615" rx="6.50485431" ry="6.50461538"></ellipse>
                    <ellipse id="Oval-Copy-12" fill="#B1AB76" filter="url(#filter-23)" cx="407.013297" cy="429.6" rx="8.40030855" ry="8.4"></ellipse>
                    <ellipse id="Oval-Copy-31" fill="#B1AB76" filter="url(#filter-24)" cx="515.013297" cy="335.6" rx="8.40030855" ry="8.4"></ellipse>
                    <ellipse id="Oval-Copy-27" fill="#C4BE88" filter="url(#filter-25)" cx="272.652066" cy="262.295385" rx="6.50485431" ry="6.50461538"></ellipse>
                    <ellipse id="Oval-Copy-18" fill="#D1CB97" cx="325.211945" cy="331.6" rx="6.00022039" ry="6"></ellipse>
                    <ellipse id="Oval-Copy-28" fill="#C4BE88" filter="url(#filter-26)" cx="187.249955" cy="421.774359" rx="6.50485431" ry="6.50461538"></ellipse>
                    <ellipse id="Oval-Copy-15" fill="#B1AB76" filter="url(#filter-27)" cx="188.40692" cy="323.6" rx="8.40030855" ry="8.4"></ellipse>
                    <ellipse id="Oval-Copy-29" fill="#D5CF99" filter="url(#filter-28)" cx="519.524724" cy="52.1784615" rx="6.50485431" ry="6.50461538"></ellipse>
                    <ellipse id="Oval-Copy-19" fill="#B1AB76" filter="url(#filter-29)" cx="666.025639" cy="293" rx="8.40030855" ry="8.4"></ellipse>
                    <ellipse id="Oval-Copy-30" fill="#C4BE88" filter="url(#filter-30)" cx="363.720026" cy="235.657436" rx="6.50485431" ry="6.50461538"></ellipse>
                </g>
                <g id="lady-2747261" transform="translate(473.692872, 163.410058) scale(-1, 1) translate(-473.692872, -163.410058) translate(343.425948, 28.820116)" fill="#503C3E" fill-rule="nonzero">
                    <path d="M258.305154,255.523136 C250.829388,257.469182 242.718948,253.754126 226.170575,247.812591 C210.166568,242.066754 198.732689,236.385813 187.482447,228.590028 C179.169233,222.829564 182.260188,225.938194 176.114033,220.242458 C173.488048,217.80885 169.877402,215.043531 168.090544,214.097156 C166.303517,213.150781 164.306332,211.835371 163.652353,211.1738 C162.486741,209.99474 162.500337,209.93556 164.336211,208.174787 C166.457612,206.140476 175.026978,200.01165 175.750115,200.01165 C176.306399,200.01165 184.486165,195.114676 184.486165,189.647926 C184.486165,185.574763 183.508387,183.986823 180.147683,182.602483 C173.411168,179.827413 158.186363,176.177757 138.79362,175.560066 C132.180314,175.349406 126.769213,175.048462 126.769213,174.891433 C126.769213,173.447745 149.836724,106.744015 151.403351,101.390413 C151.962825,99.4786645 152.658768,98.5348112 153.922074,97.9741146 C156.106255,97.0048745 158.491698,93.5984955 159.108076,90.56838 C159.637671,87.9649657 159.258646,88.0377638 156.625275,86.2194927 C164.452201,63.3726612 172.392768,37.7477335 181.78414,0.179883946 L179.048711,0.179883946 C169.705347,32.6488409 167.023632,47.4413119 159.087765,69.5455357 C153.836802,84.171395 156.061101,85.1029752 150.610553,85.764883 C146.125363,86.3094396 147.029786,87.5732346 142.579343,89.6314199 C139.479995,91.0646848 137.329051,92.3629454 135.747148,93.2800669 C135.747148,89.2361582 138.299611,82.3472396 138.307836,79.5661172 C138.312033,78.0931748 139.468916,76.8949485 142.458148,75.2674992 C143.098866,74.91864 143.898546,73.1321446 144.42898,70.864812 C147.219299,58.9366852 141.848149,66.4219429 143.757544,57.9477744 C144.679426,53.8567907 146.041601,49.0827155 146.481223,47.4922538 C146.464941,47.4888913 146.448995,47.4846882 146.432712,47.4811575 L159.371447,0.179883946 L156.505591,0.179883946 C134.493913,80.6518679 144.671704,54.9252246 130.224086,68.6015143 C115.489932,82.5489895 107.002648,83.7105646 97.3302806,92.4522198 C87.3686921,101.455309 89.0667531,97.9240134 75.5969128,105.933653 C68.9998888,109.856511 62.8805913,112.54298 60.5411413,112.543652 C58.0804971,112.544325 53.4539691,108.552703 52.4852552,105.593368 C50.8447698,100.580891 53.317332,94.770158 48.1105156,95.681227 C45.485034,96.1405442 42.9369354,93.7590548 40.8944278,93.7590548 C38.3993726,93.7590548 38.5783103,90.3057689 34.5973677,93.1719625 C32.0388618,95.0142754 28.8047237,93.875061 25.7292123,94.9455123 C24.5100528,95.3698596 23.392448,95.3416146 21.903875,94.8488405 C19.9078644,94.1881096 19.6260292,94.2799058 16.3699016,96.6499628 C11.3447087,100.30752 11.8882359,99.3465183 11.3076118,116.233658 C15.9828189,124.503386 16.5960076,124.844848 14.7698702,129.022752 C12.4000378,134.444277 1.64095143,133.510006 3.38517363,139.871349 C4.24091849,142.992252 -1.181093,143.90702 1.09759206,147.80466 C1.88300402,149.147978 3.30644779,149.346365 2.7570455,148.035999 C2.49401054,147.408557 2.71675935,147.18411 3.4850497,147.302134 C5.63851199,147.633676 3.22033616,143.65685 5.15877115,143.65685 C5.69440901,143.65685 6.53487871,143.131291 7.02620181,142.489054 C7.90393619,141.342106 7.93499009,141.347149 8.77092759,142.776884 C9.51068192,144.042192 9.47140293,144.384831 8.47046009,145.397279 C7.83712833,146.037835 6.79757794,146.713529 6.16055328,146.898634 C4.44369208,147.397461 4.14204958,151.00105 2.30634425,151.900519 C-0.499921434,153.275108 1.93537601,154.739476 5.15709256,152.419689 L6.84676061,151.203137 C6.84676061,154.309245 6.63676908,155.840358 8.08723814,156.550854 C9.8202138,157.399885 10.894511,157.308089 10.4909781,156.345405 C9.62214025,154.273098 13.9092575,151.887405 18.5178246,151.878494 C20.604479,151.874628 23.5205244,148.717073 23.5205244,146.461678 C23.5205244,144.448718 25.1558062,143.170128 25.6258112,144.815567 C26.5352709,147.999348 30.6105501,145.60609 28.8112702,145.002185 C26.3786585,144.185602 30.3084041,140.554777 35.6453111,138.688086 C41.9588214,136.479765 42.4256371,135.844757 42.5023486,129.359675 C42.5688207,123.74178 43.0532616,121.349699 44.1247052,121.349699 C44.5151451,121.349699 44.5970603,122.357104 44.3358717,123.950928 C42.4098583,135.707399 67.5734235,156.545978 75.238534,165.012749 C85.4705433,175.340999 81.8912872,191.233512 92.8870546,201.79327 C98.7433172,207.417385 91.9077656,206.428138 101.117682,208.666048 C112.258479,211.373196 114.658023,211.678343 117.314391,210.725243 C120.668884,209.521636 118.881522,209.932534 128.652422,214.687611 C131.637961,216.140546 134.170449,217.602392 134.280229,217.936288 C134.518924,218.662084 129.54325,227.652228 119.986873,236.994761 C111.276337,236.994761 110.91779,236.783764 109.704002,238.47964 C107.485746,241.578519 111.078263,245.218423 109.161818,257.607381 C108.470239,262.07799 109.989362,266.3756 112.860254,268.068281 C116.242779,270.065269 116.863689,269.558372 116.60334,265.012107 C116.447231,262.283775 116.607872,261.060667 117.122192,261.060667 C117.531936,261.060667 117.694087,260.804276 117.482417,260.490891 C116.577826,259.150936 121.539232,253.579444 129.976158,240.760759 C136.485727,230.870643 147.621657,222.319473 148.115162,222.319473 C149.287657,222.323844 164.585817,228.199306 170.414886,234.453217 C186.333453,251.532019 226.106453,247.369582 226.167385,262.851197 C226.180143,266.115847 233.062863,265.203265 234.947079,264.465532 C236.011976,264.048751 240.040423,263.743604 244.768673,263.721243 C252.38544,263.685601 252.937528,263.600866 255.847699,262.021164 C261.409201,259.001977 261.744919,254.627703 258.305154,255.523136 Z M13.6257437,141.667764 C12.2147215,142.16306 11.33598,140.910697 11.33598,142.120188 C11.33598,143.053954 9.62835103,144.868862 10.2860223,141.858754 C10.8940074,139.075782 11.6218438,138.635295 13.2102929,140.089407 C14.3262191,141.111102 14.4010842,141.395401 13.6257437,141.667764 Z M13.5047174,138.373524 C12.2511469,138.373524 13.0065121,137.199508 14.2973473,137.199508 C15.55075,137.199508 14.7958884,138.373524 13.5047174,138.373524 Z M102.273223,104.325706 C110.360163,99.5489407 118.465399,92.9051483 124.11637,86.4212427 C126.056652,84.1949325 132.993758,75.7406028 135.179953,77.7417937 C135.618568,78.143276 133.30094,90.6431956 132.197939,93.8242872 C131.764695,95.0737916 127.377366,97.2251181 119.193068,100.201097 C110.331962,103.423211 105.501822,107.637767 99.9023831,109.244369 L99.9023831,109.244369 C92.7923822,111.284564 89.8817082,111.645024 102.273223,104.325706 Z M113.720531,167.472921 C112.427345,168.536143 102.647548,154.678279 99.4780357,149.233721 C96.6669021,144.404669 93.4923539,140.498287 91.5569404,138.006675 C93.4876539,131.239143 94.1585861,130.147004 90.7418174,127.515176 C89.658288,126.680604 88.880094,125.903194 89.0125347,125.787524 C89.0125347,125.787524 112.225579,117.901793 123.970333,111.321552 C131.717862,106.980735 127.312572,108.552535 117.796649,151.8753 C117.476542,153.328236 116.500778,157.380382 115.628415,160.880407 C115.383173,161.864442 114.539179,166.796387 113.720531,167.472921 Z M118.957058,173.761466 C116.792685,172.532473 115.917972,170.788681 116.517732,168.899125 C116.892897,167.717375 130.710709,111.102485 131.367876,108.661143 C132.04418,106.148012 133.364055,105.013841 141.469627,99.9795087 C144.312822,98.2136926 145.30705,97.8902203 146.920678,98.206127 C148.006054,98.4186369 149.016397,98.6955387 149.165791,98.8216323 C149.889599,99.4317577 132.672476,146.126437 130.720109,152.575372 C123.458195,176.561754 123.421099,176.296453 118.957058,173.761466 Z M151.255803,198.544256 L151.255803,198.544424 C148.520877,200.650693 148.706697,200.340502 144.803306,197.194045 C150.737119,196.218079 149.34624,196.875616 152.310293,197.031804 C152.778284,197.056518 152.303746,197.737088 151.255803,198.544256 Z" id="Shape"></path>
                </g>
                <g id="moon" transform="translate(399.336973, 0.000000)" fill-rule="nonzero">
                    <g id="Oval">
                        <use fill="black" fill-opacity="1" filter="url(#filter-33)" xlink:href="#path-32"></use>
                        <use fill="url(#linearGradient-31)" xlink:href="#path-32"></use>
                    </g>
                    <circle id="Oval" fill="#EDEBEB" cx="46.5889749" cy="65.5" r="4.5"></circle>
                    <circle id="Oval-Copy-8" fill="#EDEBEB" cx="62.0889749" cy="64" r="3"></circle>
                    <circle id="Oval-Copy-7" fill="#EDEBEB" cx="68.0889749" cy="24" r="3"></circle>
                    <path d="M36.6882115,7 C40.294926,7 43.2187458,9.96120437 43.2187458,13.6140351 C43.2187458,14.7913298 42.9150339,15.8967818 42.3826329,16.8544088 C43.5454106,16.3824396 44.8158812,16.122807 46.1462268,16.122807 C51.3997143,16.122807 55.7194937,20.1716015 56.229451,25.3563018 C58.3338811,26.0960781 60.1232658,27.5199186 61.338333,29.3648703 C61.9072715,28.5300749 62.8586431,27.9824561 63.9363031,27.9824561 C65.6774756,27.9824561 67.0889749,29.4120031 67.0889749,31.1754386 C67.0889749,32.9388741 65.6774756,34.3684211 63.9363031,34.3684211 C63.6110534,34.3684211 63.2973073,34.3185385 63.0021163,34.2259151 C63.0245736,34.4978879 63.0355397,34.7739627 63.0355397,35.0526316 C63.0355397,40.7208172 58.4985779,45.3157895 52.901952,45.3157895 C47.6483559,45.3157895 43.3285064,41.2668276 42.8186961,36.0819732 C41.7363928,35.7021 40.737475,35.140551 39.8571832,34.4339996 C39.2086349,36.9762114 37.1033306,38.9254491 34.4966489,39.3148394 C34.5407542,39.5946372 34.5760426,39.8773212 34.6025375,40.1625954 C37.3508269,41.9969 39.1653107,45.152264 39.1653107,48.7368421 C39.1653107,54.4050277 34.6283489,59 29.0317229,59 C25.7128349,59 22.7665967,57.3840961 20.9181799,54.8867321 C13.7919432,54.6428738 8.08897485,48.7152506 8.08897485,41.4385965 C8.08897485,34.0069754 14.0374359,27.9824561 21.3752344,27.9824561 C23.6975294,27.9824561 25.8806655,28.5858843 27.7801199,29.6463701 C28.0313955,29.1698508 28.3409148,28.7273202 28.6977212,28.3290386 C27.8398204,27.7806395 27.1170976,27.0340835 26.5914632,26.1533503 L26.5636622,26.1537197 L26.5636622,26.1537197 L26.3294329,26.1578947 C22.7227183,26.1578947 19.7988985,23.1966904 19.7988985,19.5438596 C19.7988985,15.8910289 22.7227183,12.9298246 26.3294329,12.9298246 C27.771495,12.9298246 29.1043884,13.4032077 30.1848798,14.2049093 C30.1664173,14.0114001 30.1576771,13.8137513 30.1576771,13.6140351 C30.1576771,9.96120437 33.081497,7 36.6882115,7 Z" id="Oval-3" fill="url(#linearGradient-34)"></path>
                </g>
            </g>
        </g>
    </g>
</svg>
